<?xml version="1.0" standalone="no"?>
<!DOCTYPE svg PUBLIC "-//W3C//DTD SVG 1.1//EN" "http://www.w3.org/Graphics/SVG/1.1/DTD/svg11.dtd" >
<svg xmlns="http://www.w3.org/2000/svg">
<metadata>Generated by IcoMoon</metadata>
<defs>
<font id="icomoon" horiz-adv-x="1024">
<font-face units-per-em="1024" ascent="960" descent="-64" />
<missing-glyph horiz-adv-x="1024" />
<glyph unicode="&#x20;" horiz-adv-x="512" d="" />
<glyph unicode="&#xe900;" horiz-adv-x="3584" d="M3584.431 37.889c0-57.006-45.805-101.888-102.911-101.888h-3381.052c-57.106 0-100.469 43.54-100.469 100.555v823.048c0 57.024 43.363 100.396 100.469 100.396h3381.052c57.106 0 102.425-43.372 102.425-100.396v-823.048z" />
<glyph unicode="&#xe901;" horiz-adv-x="3584" d="M784.914 453.831c-0.81 86.826 71.113 129.097 74.392 131.048-40.693 59.416-103.843 67.498-126.014 68.148-52.986 5.557-104.412-31.766-131.362-31.766-27.537 0-69.203 31.198-113.953 30.302-57.679-0.937-111.643-34.313-141.203-86.134-61.040-105.708-15.517-261.041 42.958-346.534 29.283-41.826 63.478-88.568 108.227-86.899 43.772 1.824 60.108 27.891 112.975 27.891 52.39 0 67.748-27.891 113.394-26.841 46.987 0.773 76.548 42.039 104.776 84.274 33.858 47.956 47.429 95.185 47.965 97.627-1.105 0.364-91.26 34.758-92.156 138.884z" />
<glyph unicode="&#xe902;" horiz-adv-x="3584" d="M698.667 709.225c23.548 29.447 39.706 69.54 35.159 110.188-34.067-1.514-76.666-23.557-101.197-52.39-21.729-25.386-41.18-67.007-36.146-106.117 38.338-2.842 77.607 19.337 102.184 48.32z" />
<glyph unicode="&#xe903;" horiz-adv-x="3584" d="M1313.822 287.536l-30.288 93.647c-3.252 9.537-9.264 32.080-18.118 67.53h-1.060c-3.561-15.267-9.255-37.765-17.054-67.53l-29.801-93.647zM1418.597 137.965h-61.163l-33.54 105.381h-116.473l-31.962-105.381h-59.571l115.495 358.627h71.236z" />
<glyph unicode="&#xe904;" horiz-adv-x="3584" d="M1656.982 268.368c0 25.172-5.685 45.923-17.018 62.254-12.434 17.013-29.115 25.549-49.989 25.549-14.212 0-27.127-4.752-38.579-14.098-11.538-9.468-19.087-21.761-22.621-37.037-1.787-7.108-2.638-12.916-2.638-17.5v-43.135c0-18.8 5.726-34.677 17.222-47.588 11.574-13.007 26.55-19.419 44.986-19.419 21.647 0 38.506 8.277 50.526 24.976 12.106 16.699 18.109 38.665 18.109 65.997zM1715.507 270.483c0-43.986-11.865-78.753-35.654-104.298-21.279-22.702-47.724-34.026-79.245-34.026-34.067 0-58.552 12.265-73.46 36.709h-1.010v-136.201h-57.506v278.791c0 27.65-0.691 55.992-2.115 85.116h50.526l3.206-40.98h1.091c19.132 30.875 48.247 46.301 87.235 46.301 30.456 0 55.965-12.070 76.352-36.196 20.383-24.158 30.579-55.878 30.579-95.216z" />
<glyph unicode="&#xe905;" horiz-adv-x="3584" d="M1954.416 268.368c0 25.172-5.685 45.923-17.063 62.254-12.424 17.013-29.078 25.549-49.989 25.549-14.212 0-27.091-4.752-38.583-14.098-11.524-9.468-19.046-21.761-22.571-37.037-1.833-7.108-2.683-12.916-2.683-17.5v-43.135c0-18.8 5.721-34.677 17.259-47.588 11.538-13.007 26.486-19.419 44.995-19.419 21.602 0 38.497 8.277 50.526 24.976 12.015 16.699 18.109 38.665 18.109 65.997zM2012.891 270.483c0-43.986-11.851-78.753-35.654-104.298-21.283-22.702-47.674-34.026-79.267-34.026-34.035 0-58.48 12.265-73.387 36.709h-1.055v-136.201h-57.461v278.791c0 27.65-0.737 55.992-2.115 85.116h50.516l3.215-40.98h1.101c19.078 30.875 48.152 46.301 87.217 46.301 30.465 0 55.928-12.070 76.352-36.196 20.383-24.158 30.538-55.878 30.538-95.216z" />
<glyph unicode="&#xe906;" horiz-adv-x="3584" d="M2345.452 238.559c0-30.502-10.56-55.31-31.88-74.488-23.357-20.952-55.887-31.38-97.636-31.38-38.574 0-69.553 7.431-92.988 22.32l13.325 47.883c25.254-15.258 52.913-22.852 83.078-22.852 21.652 0 38.501 4.866 50.594 14.612 12.033 9.787 18.045 22.862 18.045 39.188 0 14.539-4.962 26.841-14.867 36.764-9.914 9.973-26.486 19.196-49.548 27.732-62.782 23.466-94.125 57.743-94.125 102.857 0 29.488 10.96 53.659 32.98 72.45 21.966 18.85 51.235 28.301 87.794 28.301 32.639 0 59.776-5.721 81.378-17.045l-14.335-46.828c-20.233 10.969-43.090 16.486-68.671 16.486-20.224 0-35.982-4.948-47.315-14.894-9.532-8.859-14.339-19.701-14.339-32.457 0-14.166 5.448-25.909 16.454-35.086 9.537-8.527 26.932-17.745 52.14-27.705 30.866-12.424 53.523-26.955 68.107-43.604 14.526-16.695 21.806-37.446 21.806-62.254z" />
<glyph unicode="&#xe907;" horiz-adv-x="3584" d="M2535.392 353.488h-63.314v-125.568c0-31.925 11.165-47.879 33.549-47.879 10.223 0 18.75 0.891 25.495 2.638l1.578-43.618c-11.278-4.257-26.218-6.371-44.659-6.371-22.711 0-40.452 6.903-53.204 20.706-12.756 13.848-19.16 37.119-19.16 69.726v130.366h-37.778v43.122h37.778v47.319l56.401 17.054v-64.373h63.314z" />
<glyph unicode="&#xe908;" horiz-adv-x="3584" d="M2761.509 267.56c0 23.83-5.125 44.259-15.444 61.349-12.011 20.633-29.233 30.957-51.562 30.957-23.112 0-40.657-10.323-52.681-30.957-10.314-17.090-15.385-37.883-15.385-62.459 0-23.83 5.071-44.263 15.385-61.326 12.388-20.624 29.774-30.934 52.19-30.934 21.925 0 39.156 10.469 51.535 31.47 10.642 17.427 15.963 38.051 15.963 61.9zM2821.121 269.416c0-39.747-11.328-72.364-34.031-97.909-23.803-26.272-55.392-39.347-94.702-39.347-38.010 0-68.18 12.584-90.723 37.774-22.539 25.172-33.79 56.929-33.79 95.185 0 40.129 11.583 72.932 34.845 98.432 23.194 25.59 54.5 38.347 93.888 38.347 37.924 0 68.471-12.593 91.524-37.778 22.025-24.521 32.989-56.037 32.989-94.702z" />
<glyph unicode="&#xe909;" horiz-adv-x="3584" d="M3007.843 346.053c-5.676 1.014-11.688 1.583-18.068 1.583-20.178 0-35.855-7.677-46.86-22.902-9.541-13.489-14.339-30.506-14.339-51.053v-135.678h-57.425l0.491 177.14c0 29.811-0.737 56.947-2.106 81.432h50.025l2.115-49.507h1.546c6.049 17.018 15.667 30.697 28.751 40.971 12.747 9.223 26.636 13.857 41.544 13.857 5.275 0 10.105-0.364 14.325-1.019z" />
<glyph unicode="&#xe90a;" horiz-adv-x="3584" d="M3210.005 294.438c0.409 16.981-3.329 31.721-11.128 44.145-9.95 15.963-25.263 23.958-45.814 23.958-18.759 0-34.022-7.836-45.719-23.435-9.587-12.424-15.271-27.287-16.977-44.668zM3264.792 279.535c0-10.323-0.691-18.964-2.069-26.081h-172.355c0.65-25.536 9.018-45.068 24.981-58.561 14.494-12.061 33.335-18.023 56.41-18.023 25.454 0 48.729 4.061 69.681 12.215l9.018-39.916c-24.444-10.642-53.359-15.999-86.748-15.999-40.038 0-71.554 11.824-94.416 35.422-22.83 23.557-34.313 55.264-34.313 94.98 0 38.983 10.633 71.468 31.957 97.386 22.293 27.659 52.467 41.462 90.396 41.462 37.237 0 65.506-13.802 84.684-41.462 15.18-22.011 22.775-49.139 22.775-81.423z" />
<glyph unicode="&#xe90b;" horiz-adv-x="3584" d="M1262.819 716.42c0 20.597-5.48 36.346-16.363 47.351-10.924 10.969-26.759 16.44-47.724 16.44-8.891 0-16.44-0.596-22.739-1.828v-131.735c3.493-0.532 9.869-0.773 19.082-0.773 21.602 0 38.342 5.98 50.025 18.032 11.792 12.020 17.718 29.524 17.718 52.513zM1292.548 717.229c0-31.712-9.459-55.605-28.469-71.627-17.586-14.789-42.599-22.225-74.974-22.225-16.031 0-29.842 0.691-41.33 2.115v173.283c14.976 2.438 31.189 3.652 48.616 3.652 30.857 0 54.118-6.703 69.84-20.137 17.536-15.144 26.318-36.832 26.318-65.060z" />
<glyph unicode="&#xe90c;" horiz-adv-x="3584" d="M1421.165 688.6c0 11.733-2.565 21.734-7.604 30.138-5.93 10.151-14.362 15.235-25.34 15.235-11.297 0-19.978-5.084-25.868-15.235-5.071-8.404-7.599-18.6-7.599-30.625 0-11.738 2.529-21.806 7.599-30.211 6.053-10.119 14.571-15.199 25.627-15.199 10.765 0 19.251 5.162 25.336 15.485 5.203 8.559 7.849 18.669 7.849 30.411zM1450.443 689.496c0-19.496-5.607-35.536-16.736-48.042-11.688-12.961-27.214-19.41-46.542-19.41-18.682 0-33.499 6.208-44.582 18.591-11.051 12.347-16.577 27.946-16.577 46.783 0 19.701 5.694 35.823 17.145 48.365 11.369 12.561 26.786 18.814 46.132 18.814 18.673 0 33.622-6.217 44.909-18.555 10.846-12.029 16.249-27.546 16.249-46.546z" />
<glyph unicode="&#xe90d;" horiz-adv-x="3584" d="M1662.178 751.993l-39.793-127.028h-25.831l-16.486 55.11c-4.148 13.766-7.558 27.496-10.196 41.053h-0.478c-2.488-13.93-5.898-27.605-10.242-41.053l-17.5-55.11h-26.159l-37.36 127.028h29.037l14.335-60.39c3.502-14.294 6.371-27.855 8.654-40.771h0.523c2.115 10.642 5.526 24.158 10.483 40.53l17.986 60.631h22.98l17.263-59.325c4.229-14.503 7.631-28.433 10.192-41.835h0.773c1.951 13.075 4.793 27 8.695 41.835l15.435 59.325z" />
<glyph unicode="&#xe90e;" horiz-adv-x="3584" d="M1808.541 624.967h-28.219v72.728c0 22.466-8.536 33.622-25.636 33.622-8.368 0-15.099-3.083-20.383-9.214-5.198-6.217-7.836-13.439-7.836-21.811v-75.324h-28.228v90.678c0 11.174-0.318 23.275-1.019 36.35h24.79l1.342-19.865h0.796c3.252 6.176 8.163 11.292 14.621 15.317 7.64 4.743 16.213 7.195 25.59 7.195 11.861 0 21.72-3.902 29.56-11.538 9.746-9.382 14.621-23.48 14.621-42.076z" />
<glyph unicode="&#xe90f;" horiz-adv-x="3584" d="M1886.464 624.967h-28.292v185.339h28.292z" />
<glyph unicode="&#xe910;" horiz-adv-x="3584" d="M2023.414 688.6c0 11.733-2.56 21.734-7.595 30.138-5.939 10.151-14.371 15.235-25.34 15.235-11.297 0-19.978-5.084-25.918-15.235-5.030-8.404-7.558-18.6-7.558-30.625 0-11.738 2.529-21.806 7.558-30.211 6.094-10.119 14.621-15.199 25.595-15.199 10.837 0 19.323 5.162 25.422 15.485 5.189 8.559 7.836 18.669 7.836 30.411zM2052.692 689.496c0-19.496-5.607-35.536-16.772-48.042-11.651-12.961-27.177-19.41-46.533-19.41-18.646 0-33.471 6.208-44.554 18.591-11.051 12.347-16.577 27.946-16.577 46.783 0 19.701 5.657 35.823 17.1 48.365 11.415 12.561 26.764 18.814 46.178 18.814 18.6 0 33.622-6.217 44.909-18.555 10.81-12.029 16.249-27.546 16.249-46.546z" />
<glyph unicode="&#xe911;" horiz-adv-x="3584" d="M2160.060 668.615v19.587c-31.184 0.514-46.774-8.050-46.774-25.636 0-6.617 1.874-11.529 5.526-14.862 3.615-3.293 8.191-4.948 13.721-4.948 6.208 0 11.938 1.946 17.295 5.848 5.284 3.888 8.527 8.932 9.709 15.017 0.373 1.433 0.523 3.092 0.523 4.993zM2189.388 624.965h-25.376l-2.078 14.612h-0.814c-8.732-11.688-21.070-17.495-37.078-17.495-12.061 0-21.761 3.816-29.074 11.538-6.622 6.935-9.864 15.585-9.864 25.818 0 15.512 6.453 27.377 19.487 35.577 12.916 8.204 31.193 12.183 54.705 12.024v2.356c0 16.731-8.777 25.090-26.309 25.090-12.561 0-23.607-3.17-33.149-9.414l-5.721 18.555c11.851 7.313 26.309 10.969 43.522 10.969 33.312 0 49.884-17.504 49.884-52.554v-46.778c0-12.684 0.641-22.825 1.865-30.297z" />
<glyph unicode="&#xe912;" horiz-adv-x="3584" d="M2320.643 678.528v21.165c0 3.652-0.287 6.653-0.819 8.891-1.578 6.781-4.989 12.543-10.273 17.136-5.234 4.634-11.497 6.908-18.878 6.908-10.487 0-18.769-4.148-24.781-12.511-6.085-8.404-9.096-19.091-9.096-32.121 0-12.597 2.924-22.83 8.695-30.625 6.121-8.368 14.33-12.543 24.603-12.543 9.309 0 16.809 3.488 22.339 10.473 5.448 6.412 8.209 14.175 8.209 23.225zM2349.876 624.969h-25.095l-1.342 20.374h-0.773c-8-15.508-21.602-23.298-40.734-23.298-15.39 0-28.060 6.039-38.165 18.068-10.11 12.015-15.144 27.614-15.144 46.783 0 20.588 5.435 37.205 16.395 49.953 10.651 11.851 23.717 17.75 39.233 17.75 17.1 0 29.037-5.73 35.814-17.259h0.578v72.941h28.182v-151.081c0-12.393 0.364-23.794 1.051-34.231z" />
<glyph unicode="&#xe913;" horiz-adv-x="3584" d="M2562.11 688.6c0 11.733-2.56 21.734-7.595 30.138-5.889 10.151-14.425 15.235-25.304 15.235-11.36 0-20.015-5.084-25.913-15.235-5.034-8.404-7.599-18.6-7.599-30.625 0-11.738 2.565-21.806 7.599-30.211 6.103-10.119 14.621-15.199 25.636-15.199 10.755 0 19.205 5.162 25.299 15.485 5.275 8.559 7.877 18.669 7.877 30.411zM2591.429 689.496c0-19.496-5.603-35.536-16.813-48.042-11.62-12.961-27.164-19.41-46.464-19.41-18.714 0-33.54 6.208-44.586 18.591-11.042 12.347-16.567 27.946-16.567 46.783 0 19.701 5.685 35.823 17.063 48.365 11.442 12.561 26.832 18.814 46.119 18.814 18.696 0 33.635-6.217 45.014-18.555 10.792-12.029 16.235-27.546 16.235-46.546z" />
<glyph unicode="&#xe914;" horiz-adv-x="3584" d="M2743.229 624.967h-28.264v72.728c0 22.466-8.536 33.622-25.581 33.622-8.368 0-15.199-3.083-20.392-9.214-5.198-6.217-7.872-13.439-7.872-21.811v-75.324h-28.182v90.678c0 11.174-0.409 23.275-1.064 36.35h24.853l1.305-19.865h0.814c3.252 6.176 8.113 11.292 14.612 15.317 7.64 4.743 16.24 7.195 25.59 7.195 11.888 0 21.761-3.902 29.56-11.538 9.755-9.382 14.621-23.48 14.621-42.076z" />
<glyph unicode="&#xe915;" horiz-adv-x="3584" d="M2933.285 730.836h-31.107v-61.731c0-15.672 5.439-23.503 16.486-23.503 5.039 0 9.186 0.441 12.515 1.296l0.81-21.406c-5.621-2.069-12.916-3.17-21.966-3.17-11.174 0-19.86 3.411-26.113 10.187-6.253 6.84-9.427 18.2-9.427 34.286v64.041h-18.605v21.156h18.605v23.275l27.696 8.331v-31.607h31.107z" />
<glyph unicode="&#xe916;" horiz-adv-x="3584" d="M3082.739 624.967h-28.192v72.205c0 22.784-8.527 34.145-25.672 34.145-12.984 0-22.002-6.608-26.832-19.774-0.932-2.797-1.342-6.208-1.342-10.187v-76.389h-28.228v185.339h28.228v-76.584h0.568c8.854 13.93 21.565 20.92 38.087 20.92 11.733 0 21.37-3.902 29.037-11.538 9.546-9.578 14.344-23.798 14.344-42.644z" />
<glyph unicode="&#xe917;" horiz-adv-x="3584" d="M3210.085 701.799c0.159 8.368-1.669 15.599-5.516 21.684-4.839 7.831-12.356 11.783-22.425 11.783-9.259 0-16.718-3.816-22.571-11.501-4.639-6.139-7.39-13.43-8.291-21.966zM3237.053 694.482c0-5.030-0.409-9.327-1.051-12.829h-84.72c0.323-12.547 4.389-22.098 12.27-28.705 7.14-5.962 16.413-8.9 27.687-8.9 12.602 0 23.971 1.996 34.276 6.012l4.379-19.605c-11.938-5.212-26.186-7.849-42.549-7.849-19.655 0-35.163 5.807-46.419 17.336-11.165 11.62-16.859 27.173-16.859 46.669 0 19.169 5.198 35.131 15.685 47.874 11.042 13.611 25.831 20.388 44.432 20.388 18.35 0 32.162-6.776 41.576-20.388 7.472-10.792 11.292-24.149 11.292-40.002z" />
<glyph unicode="&#xe918;" horiz-adv-x="3584" d="M3584.435 37.889c0-57.006-45.805-101.888-102.911-101.888h-3381.056c-57.102 0-100.469 43.54-100.469 100.555v823.048c0 57.024 43.367 100.396 100.469 100.396h3381.056c57.106 0 102.425-43.372 102.425-100.396v-823.048z" />
<glyph unicode="&#xe919;" horiz-adv-x="3584" d="M393.849 737.592v-640.479c0-7.677 3.384-12.893 8.668-14.671v0l340.995 338.117-338.148 335.297c-6.808-1.901-11.515-8.054-11.515-18.264z" />
<glyph unicode="&#xe91a;" horiz-adv-x="3584" d="M410.167 756.492c-1.687 0-3.293-0.218-4.802-0.637v0l338.148-335.297 93.925 93.129-141.158 81.5c0 0-0.25 0.136-0.723 0.414v0l-0.032 0.018c-0.114 0.064-0.236 0.136-0.377 0.214v0l-0.032 0.023c-0.105 0.064-0.209 0.118-0.323 0.186v0l-0.050 0.032c-0.023 0.014-0.041 0.018-0.064 0.032v0l-0.086 0.050c-0.018 0.014-0.041 0.023-0.068 0.036v0l-0.086 0.055c-0.005 0.005-0.009 0.009-0.018 0.014v0l-0.096 0.050c-0.032 0.018-0.059 0.032-0.091 0.050v0l-271.028 156.484c-4.484 2.442-8.95 3.647-12.988 3.647v0c-0.018 0-0.036 0-0.050 0z" />
<glyph unicode="&#xe91b;" horiz-adv-x="3584" d="M743.508 420.55l-340.991-338.107c3.984-1.337 9.064-0.714 14.58 2.31v0l39.479 22.798c76.903 44.413 239.703 138.411 239.703 138.411v0l141.153 81.473-93.911 93.115z" />
<glyph unicode="&#xe91c;" horiz-adv-x="3584" d="M743.513 420.559l93.92-93.124 103.234 59.612c15.626 9.014 28.028 16.172 32.444 18.723v0c15.39 8.891 14.466 20.979 2.228 28.31v0l-0.864 0.496c-0.136 0.082-0.273 0.155-0.409 0.227v0c-12.547 6.763-120.975 69.785-135.109 78.008v0l-1.519 0.878z" />
<glyph unicode="&#xe91d;" horiz-adv-x="3584" d="M2590.839 468.087c-20.606 0-35.513-5.703-44.704-17.109-9.205-11.41-13.93-29.57-14.18-54.473v-6.803c0-28.337 4.73-48.616 14.18-60.817 9.446-12.206 24.594-18.3 45.437-18.3 17.432 0 31.079 7.044 40.962 21.152 9.869 14.103 14.807 33.549 14.807 58.339 0 25.145-4.939 44.436-14.807 57.866-9.882 13.439-23.785 20.147-41.694 20.147zM2595.255 285.004c-13.129 0-25.122 2.424-35.964 7.267-10.855 4.848-19.974 12.302-27.337 22.357h-2.21c1.478-11.779 2.21-22.943 2.21-33.485v-82.983h-30.529v292.193h24.835l4.225-27.596h1.469c7.859 11.042 17.004 19.010 27.428 23.921 10.423 4.902 22.389 7.363 35.873 7.363 26.754 0 47.397-9.15 61.918-27.428 14.539-18.273 21.816-43.913 21.816-76.912 0-33.117-7.399-58.848-22.166-77.198-14.794-18.332-35.304-27.5-61.568-27.5z" />
<glyph unicode="&#xe91e;" horiz-adv-x="3584" d="M2749.7 288.692h-30.538v286.304h30.538z" />
<glyph unicode="&#xe91f;" horiz-adv-x="3584" d="M2856.306 310.213c19.019 0 33.94 5.212 44.804 15.635 10.851 10.423 16.29 25.026 16.29 43.804v18.209l-30.556-1.269c-24.285-0.878-41.794-4.639-52.531-11.342-10.728-6.681-16.095-17.081-16.095-31.189 0-11.028 3.329-19.442 10.023-25.199 6.69-5.771 16.031-8.65 28.064-8.65zM2925.304 288.693l-6.076 28.705h-1.464c-10.064-12.647-20.092-21.211-30.097-25.668-9.991-4.489-22.475-6.726-37.437-6.726-19.992 0-35.663 5.162-47.010 15.453-11.351 10.314-17.022 24.963-17.022 43.977 0 40.725 32.571 62.072 97.695 64.032l34.245 1.114v12.506c0 15.826-3.406 27.514-10.223 35.050-6.803 7.558-17.704 11.315-32.657 11.315-16.809 0-35.827-5.144-57.038-15.458l-9.387 23.371c9.937 5.403 20.82 9.637 32.657 12.702 11.842 3.065 23.703 4.602 35.609 4.602 24.035 0 41.853-5.339 53.454-16.008 11.583-10.674 17.382-27.782 17.382-51.34v-137.629z" />
<glyph unicode="&#xe920;" horiz-adv-x="3584" d="M2965.67 490.356h32.739l44.159-114.999c9.691-26.263 15.712-45.205 18.050-56.874h1.464c1.601 6.271 4.948 16.963 10.028 32.125 5.089 15.158 21.747 61.727 49.957 139.748h32.767l-86.685-229.634c-8.582-22.693-18.609-38.797-30.092-48.311-11.46-9.505-25.54-14.248-42.208-14.248-9.337 0-18.528 1.041-27.619 3.12v24.467c6.744-1.464 14.298-2.21 22.643-2.21 20.979 0 35.927 11.779 44.9 35.336l11.219 28.705z" />
<glyph unicode="&#xe921;" horiz-adv-x="3584" d="M2011.729 364.475c9.691 9.719 10.519 23.203 10.519 30.802 0 30.361-18.132 77.607-53.127 77.607-10.978 0-22.78-5.48-29.533-13.93-7.158-8.864-9.282-20.233-9.282-31.22 0-28.255 16.449-75.074 52.731-75.074 10.555 0 21.916 5.066 28.692 11.815zM1999.491 284.321c-3.379 0.446-5.489 0.446-9.691 0.446-3.793 0-26.604-0.864-44.3-6.79-9.282-3.338-36.282-13.461-36.282-43.431 0-29.924 29.115-51.476 74.256-51.476 40.47 0 62.009 19.446 62.009 45.578 0 21.547-13.93 32.889-45.991 55.674zM2029.442 471.625c9.696-8.022 29.942-24.89 29.942-56.965 0-31.184-17.718-45.982-35.441-59.885-5.489-5.471-11.811-11.406-11.811-20.688 0-9.255 6.321-14.325 10.983-18.127l15.19-11.788c18.559-15.612 35.413-29.961 35.413-59.084 0-39.643-38.392-79.709-110.924-79.709-61.172 0-90.687 29.097-90.687 60.335 0 15.18 7.558 36.678 32.48 51.467 26.136 16.022 61.59 18.109 80.554 19.405-5.912 7.586-12.652 15.599-12.652 28.655 0 7.158 2.119 11.388 4.216 16.467-4.657-0.427-9.282-0.841-13.511-0.841-44.695 0-69.999 33.326-69.999 66.206 0 19.41 8.864 40.93 26.982 56.529 24.044 19.824 52.731 23.198 75.529 23.198h86.867l-26.991-15.176z" />
<glyph unicode="&#xe922;" horiz-adv-x="3584" d="M1816.526 325.18c10.123 13.493 12.652 30.334 12.652 46.765 0 37.069-17.682 107.805-69.913 107.805-13.893 0-27.782-5.489-37.892-14.335-16.422-14.726-19.392-33.262-19.392-51.394 0-41.657 20.647-110.283 71.614-110.283 16.417 0 33.262 7.986 42.931 21.443zM1763.895 291.072c-66.957 0-102.747 52.226-102.747 99.4 0 55.178 45.050 102.311 109.087 102.311 61.877 0 100.619-48.402 100.619-99.368 0-49.68-38.301-102.343-106.959-102.343z" />
<glyph unicode="&#xe923;" horiz-adv-x="3584" d="M1588.281 325.18c10.11 13.493 12.638 30.334 12.638 46.765 0 37.069-17.691 107.805-69.917 107.805-13.884 0-27.791-5.489-37.896-14.335-16.422-14.726-19.369-33.262-19.369-51.394 0-41.657 20.629-110.283 71.604-110.283 16.426 0 33.258 7.986 42.94 21.443zM1535.636 291.072c-66.961 0-102.761 52.226-102.761 99.4 0 55.178 45.077 102.311 109.082 102.311 61.904 0 100.637-48.402 100.637-99.368 0-49.68-38.306-102.343-106.959-102.343z" />
<glyph unicode="&#xe924;" horiz-adv-x="3584" d="M1400.704 297.68l-60.549-13.98c-24.572-3.82-46.574-7.176-69.854-7.176-116.864 0-161.313 85.953-161.313 153.273 0 82.123 63.086 158.326 171.059 158.326 22.871 0 44.873-3.384 64.765-8.891 31.757-8.9 46.574-19.887 55.892-26.254l-35.15-33.444-14.812-3.374 10.587 16.94c-14.389 13.971-40.666 39.784-90.609 39.784-66.893 0-117.282-50.826-117.282-124.913 0-79.577 57.593-154.519 149.871-154.519 27.127 0 41.066 5.498 53.777 10.587v68.157l-63.928-3.374 33.863 18.214h89.759l-10.996-10.578c-2.983-2.547-3.393-3.411-4.239-6.767-0.441-3.82-0.841-16.113-0.841-20.333z" />
<glyph unicode="&#xe925;" horiz-adv-x="3584" d="M2163.262 309.866c-13.975 1.278-16.904 3.802-16.904 20.342v239.626c0.091 0.914 0.141 1.846 0.232 2.729 1.705 14.812 5.935 17.354 19.078 24.994h-60.567l-31.771-15.253h32.375v-0.196l-0.027 0.159v-261.387c0-8.45-1.669-9.737-11.424-22.43h74.952l15.667 9.282c-7.19 0.882-14.398 1.287-21.611 2.133z" />
<glyph unicode="&#xe926;" horiz-adv-x="3584" d="M2296.039 431.288c7.972 2.938 12.183 5.471 12.183 11.351 0 16.804-18.91 36.159-41.644 36.159-16.831 0-48.343-13.038-48.343-58.443 0-7.154 0.841-14.712 1.278-22.307zM2335.545 305.975c-4.607-2.519-9.241-5.48-13.839-7.567-13.902-6.303-28.196-7.995-40.83-7.995-13.425 0-34.463 0.873-55.928 16.408-29.824 21.033-42.867 57.193-42.867 88.727 0 65.169 52.981 97.117 96.29 97.117 15.139 0 30.716-3.775 43.336-11.779 20.997-13.857 26.468-31.93 29.388-41.612l-98.777-39.952-32.385-2.524c10.487-53.4 46.646-84.488 86.621-84.488 21.429 0 36.991 7.549 51.285 14.689z" />
<glyph unicode="&#xe927;" horiz-adv-x="3584" d="M2376.136 489.787v-27.75h-3.374v27.75h-9.177v2.879h21.729v-2.879z" />
<glyph unicode="&#xe928;" horiz-adv-x="3584" d="M2413.957 462.038v28.005h-0.159l-8.545-28.005h-2.633l-8.623 28.005h-0.105v-28.005h-3.065v30.625h5.248l7.799-24.744h0.118l7.672 24.744h5.321v-30.625z" />
<glyph unicode="&#xe929;" horiz-adv-x="3584" d="M1162.711 707.706c-7.495 22.616-11.251 34.845-11.251 36.691h-1.051c0-1.715-3.875-13.943-11.629-36.691zM1193.085 670.569h-21.038c0 2.888-2.001 11.078-5.989 24.585h-30.374c-4.12-13.289-6.185-21.475-6.185-24.585h-19.778c0 1.705 5.116 15.731 15.349 42.067 10.232 26.345 15.349 40.857 15.349 43.522h24.853c0-2.497 4.634-16.786 13.907-42.89 9.268-26.1 13.907-40.334 13.907-42.699z" />
<glyph unicode="&#xe92a;" horiz-adv-x="3584" d="M1277.862 670.569h-16.245c0 1.796-6.026 11.278-18.077 28.46-12.62 18.1-19.815 30.484-21.565 37.146h-1.051c1.087-9.605 1.637-18.282 1.637-26.036 0-10.828 0.309-24.017 0.923-39.57h-16.176c0.659 13.58 0.996 28.505 0.996 44.768 0 15.994-0.337 29.606-0.996 40.821h19.533c0-2.315 5.412-11.592 16.235-27.81 11.533-17.222 18.141-28.901 19.856-35.040h0.991c-1.055 9.769-1.578 18.546-1.578 26.3 0 11.879-0.309 24.062-0.919 36.55h16.436c-0.623-10.869-0.923-24.476-0.923-40.821 0-16.477 0.3-31.402 0.923-44.768z" />
<glyph unicode="&#xe92b;" horiz-adv-x="3584" d="M1355.2 713.488c0 8.422-2.456 15.508-7.363 21.274-4.912 5.762-12.411 8.641-22.484 8.641-1.892 0-4.475-0.196-7.763-0.596 0.437-8.759 0.659-17.914 0.659-27.473 0-10.478 0.214-20.865 0.659-31.166 2.847-0.559 5.689-0.855 8.545-0.855 9.423 0 16.404 2.933 20.942 8.786 4.53 5.844 6.803 12.975 6.803 21.388zM1373.15 716.322c0-12.452-3.988-23.316-11.965-32.607-7.981-9.3-19.155-13.943-33.535-13.943-6.481 0-15.421 0.264-26.818 0.796 0.568 13.239 0.85 28.16 0.85 44.768 0 15.954-0.282 29.56-0.85 40.825h11.501c1.883 0 4.684 0.068 8.418 0.205 3.72 0.123 6.153 0.196 7.295 0.196 15.822 0 27.296-3.952 34.422-11.833 7.117-7.895 10.683-17.354 10.683-28.405z" />
<glyph unicode="&#xe92c;" horiz-adv-x="3584" d="M1436.358 731.049c0 8.723-5.612 13.084-16.831 13.084-4.111 0-7.754-0.309-10.915-0.923 0.487-6.794 0.728-15.653 0.728-26.559 2.406-0.096 4.448-0.132 6.108-0.132 13.943 0 20.911 4.839 20.911 14.53zM1461.016 670.569h-19.46c-5.093 15.508-8.991 25.085-11.706 28.728-2.72 3.638-7.099 5.453-13.148 5.453-2.551 0-4.975-0.027-7.299-0.064 0-11.26 0.2-22.639 0.591-34.117h-18.273c0.564 13.234 0.85 28.16 0.85 44.768 0 15.954-0.287 29.56-0.85 40.821h11.374c1.314 0 4.057 0.073 8.25 0.205 4.184 0.127 8.054 0.196 11.601 0.196 20.119 0 30.174-6.872 30.174-20.651 0-10.906-5.739-18.509-17.227-22.807v-0.987c4.425-1.228 8.313-4.68 11.642-10.346 3.324-5.685 7.822-16.095 13.48-31.198z" />
<glyph unicode="&#xe92d;" horiz-adv-x="3584" d="M1537.11 713.035c0 9.168-2.347 16.59-7.035 22.284-4.693 5.694-10.483 8.554-17.354 8.554-6.403 0-11.833-2.87-16.308-8.623-4.47-5.739-6.708-12.997-6.708-21.761 0-9.114 2.36-16.522 7.072-22.243s10.487-8.591 17.318-8.591c6.399 0 11.842 2.888 16.308 8.654 4.47 5.762 6.708 13.002 6.708 21.725zM1555.256 714.936c0-13.448-4.125-24.612-12.365-33.458-8.236-8.859-18.428-13.279-30.565-13.279-11.569 0-21.261 4.057-29.060 12.193-7.799 8.127-11.701 18.468-11.701 31.002 0 13.457 4.116 24.612 12.361 33.458 8.241 8.845 18.423 13.279 30.57 13.279 11.565 0 21.252-4.052 29.056-12.161 7.799-8.109 11.706-18.446 11.706-31.034z" />
<glyph unicode="&#xe92e;" horiz-adv-x="3584" d="M1592.429 670.569h-18.609c0.573 13.58 0.864 28.505 0.864 44.768 0 15.994-0.291 29.606-0.864 40.821h18.609c-0.573-11.037-0.86-24.649-0.86-40.821 0-16.522 0.287-31.443 0.86-44.768z" />
<glyph unicode="&#xe92f;" horiz-adv-x="3584" d="M1669.773 713.488c0 8.422-2.451 15.508-7.363 21.274-4.907 5.762-12.406 8.641-22.484 8.641-1.887 0-4.47-0.196-7.758-0.596 0.437-8.759 0.655-17.914 0.655-27.473 0-10.478 0.218-20.865 0.664-31.166 2.842-0.559 5.694-0.855 8.541-0.855 9.427 0 16.408 2.933 20.947 8.786 4.53 5.844 6.799 12.975 6.799 21.388zM1687.727 716.322c0-12.452-3.997-23.316-11.965-32.607-7.986-9.3-19.16-13.943-33.531-13.943-6.49 0-15.435 0.264-26.823 0.796 0.559 13.239 0.841 28.16 0.841 44.768 0 15.954-0.282 29.56-0.841 40.825h11.492c1.892 0 4.693 0.068 8.422 0.205 3.729 0.123 6.153 0.196 7.299 0.196 15.817 0 27.287-3.952 34.422-11.833 7.117-7.895 10.683-17.354 10.683-28.405z" />
<glyph unicode="&#xe930;" horiz-adv-x="3584" d="M1783.764 707.706c-7.49 22.616-11.247 34.845-11.247 36.691h-1.055c0-1.715-3.87-13.943-11.629-36.691zM1814.143 670.569h-21.042c0 2.888-1.996 11.078-5.989 24.585h-30.37c-4.12-13.289-6.18-21.475-6.18-24.585h-19.783c0 1.705 5.121 15.731 15.349 42.067 10.232 26.345 15.349 40.857 15.349 43.522h24.849c0-2.497 4.634-16.786 13.907-42.89 9.273-26.1 13.912-40.334 13.912-42.699z" />
<glyph unicode="&#xe931;" horiz-adv-x="3584" d="M1873.866 730.125c0 9.382-6.217 14.071-18.669 14.071-3.115 0-6.408-0.323-9.86-0.987 0.478-8.277 0.719-17.659 0.719-28.142 1.091-0.086 2.36-0.132 3.811-0.132 16.004 0 23.999 5.062 23.999 15.19zM1890.829 733.74c0-10.473-3.888-18.209-11.674-23.212-7.777-4.989-17.322-7.486-28.628-7.486-2.060 0-3.529 0.036-4.402 0.132 0-8.241 0.236-19.114 0.723-32.607h-18.478c0.568 12.656 0.855 27.582 0.855 44.768 0 15.776-0.287 29.392-0.855 40.825h11.442c1.619 0 4.734 0.068 9.332 0.205 4.602 0.123 8.591 0.191 11.965 0.191 8.322 0 15.367-1.883 21.106-5.657 5.748-3.775 8.613-9.487 8.613-17.159z" />
<glyph unicode="&#xe932;" horiz-adv-x="3584" d="M1952.723 730.125c0 9.382-6.226 14.071-18.678 14.071-3.111 0-6.399-0.323-9.86-0.987 0.482-8.277 0.728-17.659 0.728-28.142 1.091-0.086 2.36-0.132 3.811-0.132 15.994 0 23.999 5.062 23.999 15.19zM1969.682 733.74c0-10.473-3.893-18.209-11.665-23.212-7.781-4.989-17.327-7.486-28.637-7.486-2.060 0-3.525 0.036-4.407 0.132 0-8.241 0.241-19.114 0.723-32.607h-18.473c0.568 12.656 0.86 27.582 0.86 44.768 0 15.776-0.291 29.392-0.86 40.825h11.438c1.624 0 4.734 0.068 9.337 0.205 4.602 0.123 8.586 0.191 11.961 0.191 8.331 0 15.367-1.883 21.111-5.657s8.613-9.487 8.613-17.159z" />
<glyph unicode="&#xe933;" horiz-adv-x="3584" d="M2080.452 713.035c0 9.168-2.338 16.59-7.031 22.284s-10.478 8.554-17.35 8.554c-6.408 0-11.842-2.87-16.308-8.623-4.48-5.739-6.708-12.997-6.708-21.761 0-9.114 2.356-16.522 7.072-22.243 4.707-5.721 10.483-8.591 17.318-8.591 6.408 0 11.833 2.888 16.299 8.654 4.48 5.762 6.708 13.002 6.708 21.725zM2098.597 714.936c0-13.448-4.111-24.612-12.365-33.458-8.231-8.859-18.418-13.279-30.561-13.279-11.574 0-21.256 4.057-29.065 12.193-7.799 8.127-11.697 18.468-11.697 31.002 0 13.457 4.111 24.612 12.356 33.458s18.428 13.279 30.57 13.279c11.574 0 21.265-4.052 29.065-12.161s11.697-18.446 11.697-31.034z" />
<glyph unicode="&#xe934;" horiz-adv-x="3584" d="M2187.715 670.569h-16.235c0 1.796-6.030 11.278-18.086 28.46-12.62 18.1-19.805 30.484-21.561 37.146h-1.055c1.096-9.605 1.646-18.282 1.646-26.036 0-10.828 0.305-24.017 0.923-39.57h-16.176c0.659 13.58 0.987 28.505 0.987 44.768 0 15.994-0.327 29.606-0.987 40.821h19.524c0-2.315 5.421-11.592 16.249-27.81 11.529-17.222 18.136-28.901 19.851-35.040h0.987c-1.060 9.769-1.583 18.546-1.583 26.3 0 11.879-0.305 24.062-0.919 36.55h16.436c-0.614-10.869-0.919-24.476-0.919-40.821 0-16.477 0.305-31.402 0.919-44.768z" />
</font>
</defs>
</svg>
